<svg xmlns="http://www.w3.org/2000/svg" width="256" height="256"><path fill="#1976D2" fill-opacity=".016" fill-rule="evenodd" d="M0 128.004v128.004l128.25-.254 128.25-.254.254-127.75L257.008 0H0zm.485.496c0 70.4.119 99.053.265 63.672s.146-92.98 0-128S.485 58.1.485 128.5"/><path fill="#1976D2" fill-opacity=".366" fill-rule="evenodd" d="M42.072 2.534C20.729 7.226 5.875 21.938 1.464 42.754-.683 52.887-.642 203.291 1.511 213.5c3.237 15.351 12.44 27.559 26.235 34.801 12.832 6.736 11.722 6.662 100.32 6.682 52.509.011 81.585-.349 85.5-1.059 9.478-1.718 19.747-7.2 26.916-14.369 7.346-7.346 13.237-18.285 14.183-26.334.341-2.904 1.006-5.518 1.478-5.809.471-.292.857-36.578.857-80.638 0-44.059-.317-79.79-.705-79.402s-1.283-2.124-1.988-5.583c-1.626-7.982-6.137-17.178-11.306-23.05-4.92-5.59-14.662-11.877-23.162-14.949L213.5 1.5 131 1.31c-67.914-.156-83.636.06-88.928 1.224M.477 128c0 44.275.123 62.388.273 40.25s.15-58.362 0-80.5S.477 83.725.477 128"/><path fill="#1976D2" fill-opacity=".409" fill-rule="evenodd" d="M46.5 2.074C28.316 4.742 13.22 15.238 6.263 30.051.367 42.606.5 40.336.5 128.5c0 74.315.146 81.527 1.764 87.387 5.434 19.671 20.501 33.371 41.343 37.593 6.927 1.404 17.746 1.561 88.393 1.288 89.126-.345 83.976.024 97.199-6.976 6.956-3.681 16.617-13.523 20.181-20.555 3.237-6.388 5.62-15.245 5.62-20.888 0-2.327.45-4.509 1-4.849.652-.403.995-26.41.985-74.809-.01-48.269-.354-73.667-.985-72.691-.69 1.068-.974-.104-.985-4.068-.057-20.677-15.735-39.865-38.146-46.684C212.121 1.803 202.305 1.59 132 1.404c-43.725-.115-82.2.186-85.5.67M.475 128c0 40.975.124 57.738.275 37.25s.151-54.012 0-74.5S.475 87.025.475 128M78.42 67.886C74.999 69.972 72 75.382 72 79.467c0 3.253 1.427 6.157 4.809 9.783 5.215 5.591 17.619 2.758 20.751-4.74 1.961-4.692 1.803-8.403-.52-12.211-3.721-6.104-12.454-8.173-18.62-4.413"/><path fill="#1976D2" fill-opacity=".777" fill-rule="evenodd" d="M40.638 3.585C22.662 7.937 10.924 18.293 4.1 35.821L1.5 42.5 1.209 124c-.203 56.898.048 83.522.832 88.199 3.331 19.879 17.606 34.73 38.959 40.534 5.964 1.621 13.183 1.767 87.5 1.767 88.898 0 86.439.152 98.879-6.097 11.011-5.53 20.451-16.064 24.757-27.626l2.338-6.277.296-83.203c.329-92.692.476-90.327-6.424-103.458-6.184-11.768-18.022-20.543-32.806-24.317-8.562-2.186-165.844-2.129-174.902.063M120.5 31.524c-12.437 7.655-47.97 21.113-66 24.996-4.821 1.039-8.936 2.569-10.357 3.852L41.786 62.5l.504 27c.552 29.618 1.68 38.526 6.838 54 6.141 18.423 15.736 34.118 29.872 48.864 11.529 12.025 27.785 24.023 42.71 31.521 5.633 2.83 7.187 2.696 15.126-1.302 13.195-6.645 25.361-15.672 37.774-28.029 17.096-17.017 25.178-29.671 31.862-49.883 5.42-16.389 6.683-26.015 7.261-55.342l.516-26.171-2.405-2.405c-1.721-1.721-5.24-3.06-12.375-4.708-19.163-4.428-43.26-13.497-60.123-22.629-9.429-5.106-13.035-5.468-18.846-1.892m-5 10.056c-16.047 7.903-34.504 14.954-49.677 18.978-7.328 1.944-13.998 3.899-14.823 4.346-1.246.675-1.552 4.436-1.806 22.204-.17 11.885.195 25.503.822 30.643 2.371 19.435 9.079 37.502 19.987 53.835 10.782 16.144 33.998 36.154 52.247 45.033l5.75 2.798 5.75-2.798c16.4-7.98 36.537-24.437 47.645-38.939 5.242-6.844 14.605-22.186 14.605-23.931 0-.44-1.328-.114-2.95.725-3.936 2.036-6.597 1.924-11.577-.487l-4.158-2.013-23.157 12.741L131 177.455v4.39c0 3.766-.552 4.942-3.882 8.273-3.352 3.351-4.494 3.882-8.352 3.882-6.075 0-10.814-3.269-12.735-8.783-1.212-3.478-1.249-4.787-.215-7.467 1.199-3.105 1.104-3.384-2.139-6.25-1.867-1.65-8.548-7.814-14.847-13.698l-11.453-10.698-4.067 1.401c-13.534 4.663-23.16-12.722-12.167-21.972 1.656-1.393 3.849-2.533 4.875-2.533 2.534 0 2.642-.235 7.984-17.399 4.501-14.465 4.621-15.156 2.843-16.412C73.904 88.113 72 83.492 72 78.432c0-4.071.486-5.153 3.799-8.467 5.168-5.167 9.635-5.961 15.896-2.825 3.061 1.534 5.253 3.49 6.258 5.587l1.547 3.228 28.129.022 28.128.023 1.292-3.118c3.412-8.236 17.189-9.273 22.171-1.668 2.779 4.241 3.073 8.336.943 13.151-1.086 2.455-2.869 4.943-3.962 5.528-1.924 1.029-1.778 1.697 4.48 20.585 6.417 19.368 6.491 19.522 9.359 19.522 3.145 0 9.96 5.203 9.96 7.604 0 .768.414 1.396.92 1.396.983 0 3.322-9.354 5.001-20 1.245-7.888 1.556-52.923.375-54.104-.464-.464-6.431-2.249-13.26-3.968-15.737-3.96-30.531-9.359-49.499-18.062-8.23-3.776-15.43-6.829-16-6.785-.571.045-5.987 2.519-12.037 5.499M98.443 83.601c-.878 2.421-.152 3.383 10.478 13.888 10.935 10.808 11.542 11.246 14.275 10.293 2.834-.988 7.886-.711 10.851.595 1.093.481 4.853-2.484 12.803-10.098L158.106 87.5l-1.272-3.25-1.272-3.25H99.386zm-7.943 7.94c-1.65.753-3.901 1.389-5.003 1.414-1.703.038-2.734 2.397-6.885 15.75-3.843 12.361-4.587 15.803-3.497 16.165.762.253 2.518 1.671 3.903 3.152l2.517 2.692 16.733-5.389C112.66 120.69 115 119.652 115 117.902c0-1.118.45-2.873.999-3.9.85-1.589-.648-3.475-10.078-12.684-6.092-5.95-11.379-10.892-11.749-10.982s-2.022.452-3.672 1.205m59.652 10.394c-10.156 9.692-11.233 11.046-10.25 12.882.604 1.128 1.105 3.094 1.113 4.367.013 2.048 2.048 3.177 17.553 9.743l17.539 7.428 3.066-3.067 3.067-3.066-6.2-18.602c-3.41-10.23-6.501-18.771-6.87-18.979s-2.245-.639-4.17-.957c-3.35-.553-3.987-.113-14.848 10.251M99 130.134c-8.525 2.795-15.783 5.371-16.129 5.724-.345.353-.919 2.28-1.275 4.283-.644 3.63-.602 3.681 13.838 17.178l14.484 13.538 3.291-1.158c1.81-.637 3.379-1.181 3.486-1.208s1.59-8.022 3.294-17.768l3.098-17.72-4.206-4.002c-2.314-2.2-4.246-3.99-4.294-3.975-.048.014-7.062 2.312-15.587 5.108m38.852-1.477c-1.228 1.307-3.925 2.884-5.994 3.504-4.245 1.271-3.777-.013-6.858 18.839-1.123 6.875-2.281 13.679-2.572 15.121-.444 2.197.044 2.96 3.018 4.715l3.548 2.093 23.003-12.556C174.801 147.925 175 147.788 175 144.524v-3.292l-17.458-7.476-17.457-7.475z"/></svg>